# xmcd CD database file
# Copyright (C) 1997 Ti Kan
#
# Track frame offsets:
#  150
#  17515
#  53028
#  98950
#  126458
#  173707
#  221120
#  239803
#
# Disc length: 3446 seconds
#
# Revision: 1
# Processed by: cddbd v1.4b41PL1 Copyright (c) Steve Scherf et al.
# Submitted via: CDWizzard Release:4.31
#
DISCID=720d7408
DTITLE=Steven Halpern - Sleep Soundly
DYEAR=1900
DGENRE=
TTITLE0=Subtle Energy Balancing
TTITLE1=Brahms' Lullaby
TTITLE2=Comfort Zone
TTITLE3=Light As A Feather
TTITLE4=Sleep Soundly (Part 1)
TTITLE5=Sleep Soundly (Part 2)
TTITLE6=Eventide (Part 1)
TTITLE7=Eventide (Part 2)
EXTD=
EXTT0=
EXTT1=
EXTT2=
EXTT3=
EXTT4=
EXTT5=
EXTT6=
EXTT7=
PLAYORDER=
